# xmcd
#
# Track frame offsets: 
#        150
#        14980
#        28881
#        53562
#        64305
#        79625
#        96005
#        115030
#        127992
#        141875
#        154683
#        174118
#        189031
#        205299
#        215667
#
# Disc length: 3036 seconds
#
# Revision: 0
# Processed by: cddbd v1.5.1PL0 Copyright (c) Steve Scherf et al.
# Submitted via: ExactAudioCopy v0.95a5
#
DISCID=c90bda0f
DTITLE=Mac Wiseman - The Heart Of A Legend  cd # 2
DYEAR=2002
DGENRE=country
TTITLE0=Mommy And Daddy's Waltz
TTITLE1=No One Will Ever Know
TTITLE2=Picture From Life's Other Side
TTITLE3=Remembering
TTITLE4=Silver Thread Among The Gold
TTITLE5=That Old Rocking Chair
TTITLE6=That Silver Haired Daddy
TTITLE7=The Old Spining Wheel
TTITLE8=The Prisoner's Song
TTITLE9=The Wreck Of Old #9
TTITLE10=Tramp On The Street
TTITLE11=Traveling Blues
TTITLE12=Wedding Bells
TTITLE13=When God Dips His Love In My Heart
TTITLE14=You Are My Sunshine
EXTD=
EXTT0=
EXTT1=
EXTT2=
EXTT3=
EXTT4=
EXTT5=
EXTT6=
EXTT7=
EXTT8=
EXTT9=
EXTT10=
EXTT11=
EXTT12=
EXTT13=
EXTT14=
PLAYORDER=
